<svg width="469" height="1685" viewBox="0 0 469 1685" fill="none" xmlns="http://www.w3.org/2000/svg">
<path d="M233.498 244.68C219.382 244.68 206.785 242.179 195.707 237.176C184.808 232.173 176.053 225.294 169.441 216.538C163.009 207.783 159.078 197.688 157.649 186.252L160.865 181.964L204.552 173.388C205.445 183.751 208.751 191.702 214.468 197.241C220.365 202.78 227.78 205.55 236.714 205.55C244.218 205.55 250.115 203.673 254.403 199.921C258.87 195.99 261.103 190.541 261.103 183.572C261.103 177.676 259.495 172.941 256.279 169.367C253.063 165.794 249.132 163.114 244.486 161.327C240.019 159.54 234.034 157.753 226.529 155.966L220.901 154.626C203.212 149.981 189.543 143.638 179.894 135.597C170.245 127.557 165.421 116.568 165.421 102.631C165.421 86.7285 171.496 74.3104 183.646 65.3764C195.796 56.2639 211.699 51.7076 231.353 51.7076C251.365 51.7076 267.178 56.4425 278.793 65.9125C290.407 75.2038 297.643 87.2645 300.502 102.095L297.018 106.651L257.351 112.012C256.458 103.614 253.688 97.0025 249.043 92.1782C244.576 87.1752 238.411 84.6737 230.549 84.6737C224.832 84.6737 220.186 86.0138 216.612 88.694C213.039 91.1955 211.252 94.6797 211.252 99.1466C211.252 102.899 212.592 106.026 215.272 108.527C217.953 110.85 221.347 112.726 225.457 114.156C229.745 115.585 235.82 117.283 243.682 119.248L249.847 120.856C261.461 123.715 271.377 127.288 279.597 131.577C287.994 135.686 294.963 141.672 300.502 149.534C306.041 157.217 308.811 167.312 308.811 179.82C308.811 193.399 305.505 205.103 298.894 214.93C292.283 224.579 283.26 231.994 271.824 237.176C260.567 242.179 247.792 244.68 233.498 244.68Z" fill="#FC8B75"/>
<path d="M136.153 322.388H181.716L234.784 450.5L287.851 322.388H333.414V510H288.387V410.834H285.707L281.151 445.408L254.081 510H215.486L188.417 445.408L183.86 410.834H181.18V510H136.153V322.388Z" fill="#F8D0A3"/>
</svg>
