<svg width="469" height="1685" viewBox="0 0 469 1685" fill="none" xmlns="http://www.w3.org/2000/svg">
<path d="M233.247 297.331C215.705 297.331 200.052 294.222 186.285 288.005C172.74 281.788 161.86 273.239 153.645 262.359C145.651 251.479 140.767 238.934 138.99 224.723L142.987 219.394L197.276 208.736C198.386 221.615 202.494 231.495 209.599 238.379C216.927 245.262 226.141 248.704 237.243 248.704C246.569 248.704 253.897 246.372 259.226 241.709C264.777 236.824 267.552 230.052 267.552 221.393C267.552 214.065 265.554 208.181 261.557 203.74C257.56 199.299 252.675 195.969 246.902 193.748C241.351 191.528 233.913 189.308 224.587 187.087L217.593 185.422C195.611 179.649 178.625 171.766 166.634 161.774C154.644 151.783 148.649 138.127 148.649 120.808C148.649 101.046 156.198 85.6144 171.297 74.5123C186.396 63.1882 206.158 57.5262 230.582 57.5262C255.451 57.5262 275.101 63.4102 289.534 75.1784C303.967 86.7246 312.959 101.712 316.512 120.142L312.182 125.804L262.889 132.465C261.779 122.029 258.337 113.814 252.564 107.818C247.013 101.601 239.353 98.4928 229.583 98.4928C222.478 98.4928 216.705 100.158 212.264 103.489C207.823 106.597 205.603 110.927 205.603 116.478C205.603 121.141 207.268 125.027 210.599 128.135C213.929 131.022 218.148 133.353 223.255 135.13C228.584 136.906 236.133 139.015 245.903 141.458L253.563 143.456C267.996 147.009 280.319 151.45 290.533 156.779C300.969 161.886 309.629 169.324 316.512 179.094C323.395 188.641 326.837 201.187 326.837 216.73C326.837 233.605 322.729 248.148 314.514 260.361C306.298 272.351 295.085 281.566 280.875 288.005C266.886 294.222 251.01 297.331 233.247 297.331Z" fill="#FC8B75"/>
<path d="M112.316 393.857H168.936L234.883 553.06L300.829 393.857H357.449V627H301.495V503.767H298.164L292.502 546.732L258.863 627H210.902L177.263 546.732L171.601 503.767H168.27V627H112.316V393.857Z" fill="#F8D0A3"/>
<path d="M207.922 726.857H261.212L352.471 960H289.189L276.199 923.696H192.934L179.945 960H116.663L207.922 726.857ZM258.214 873.071L238.897 818.782L235.899 793.136H233.234L230.237 818.782L210.919 873.071H258.214Z" fill="#95A5DC"/>
</svg>
