<svg width="469" height="1685" viewBox="0 0 469 1685" fill="none" xmlns="http://www.w3.org/2000/svg">
<path d="M233.474 263.915C218.124 263.915 204.426 261.194 192.379 255.754C180.526 250.313 171.006 242.833 163.816 233.312C156.821 223.791 152.547 212.813 150.992 200.378L154.49 195.714L201.997 186.388C202.968 197.657 206.563 206.304 212.781 212.327C219.193 218.351 227.256 221.362 236.971 221.362C245.132 221.362 251.544 219.322 256.207 215.242C261.065 210.967 263.494 205.041 263.494 197.463C263.494 191.051 261.745 185.902 258.247 182.016C254.75 178.13 250.475 175.215 245.423 173.272C240.566 171.329 234.057 169.386 225.896 167.443L219.775 165.986C200.54 160.934 185.675 154.036 175.183 145.293C164.691 136.549 159.445 124.6 159.445 109.444C159.445 92.151 166.051 78.6469 179.263 68.9318C192.476 59.0224 209.769 54.0676 231.142 54.0676C252.904 54.0676 270.1 59.2167 282.73 69.5147C295.359 79.6185 303.228 92.7339 306.337 108.861L302.548 113.816L259.413 119.645C258.442 110.513 255.43 103.323 250.378 98.0772C245.521 92.6367 238.817 89.9165 230.268 89.9165C224.05 89.9165 218.998 91.3738 215.112 94.2883C211.226 97.0085 209.283 100.797 209.283 105.655C209.283 109.735 210.74 113.136 213.655 115.856C216.569 118.382 220.261 120.422 224.73 121.976C229.393 123.531 236 125.377 244.549 127.514L251.253 129.263C263.882 132.372 274.666 136.258 283.604 140.921C292.736 145.39 300.314 151.899 306.337 160.448C312.361 168.803 315.372 179.781 315.372 193.383C315.372 208.15 311.778 220.876 304.589 231.563C297.399 242.055 287.587 250.119 275.152 255.754C262.911 261.194 249.018 263.915 233.474 263.915Z" fill="#FC8B75"/>
<path d="M127.653 347.982H177.2L234.908 487.297L292.616 347.982H342.163V552H293.199V444.162H290.284L285.33 481.76L255.893 552H213.923L184.487 481.76L179.532 444.162H176.617V552H127.653V347.982Z" fill="#F8D0A3"/>
<path d="M211.439 638.982H258.071L337.93 843H282.554L271.187 811.232H198.323L186.957 843H131.58L211.439 638.982ZM255.448 766.931L238.544 719.423L235.921 696.982H233.589L230.966 719.423L214.062 766.931H255.448Z" fill="#95A5DC"/>
<path d="M152.653 929.982H236.3C260.588 929.982 280.018 936.006 294.591 948.052C309.358 959.905 316.742 976.712 316.742 998.474C316.742 1023.15 305.958 1042.29 284.39 1055.89V1060.55L327.234 1134H269.526L230.471 1065.8H205.698V1134H152.653V929.982ZM235.135 1021.5C243.684 1021.5 250.582 1019.65 255.828 1015.96C261.074 1012.08 263.697 1006.05 263.697 997.891C263.697 989.73 261.074 983.804 255.828 980.112C250.582 976.226 243.684 974.283 235.135 974.283H205.698V1021.5H235.135Z" fill="#B7C8BD"/>
</svg>
